<?xml version="1.0" encoding="utf-8"?>
<!-- Generator: Adobe Illustrator 19.2.1, SVG Export Plug-In . SVG Version: 6.00 Build 0)  -->
<svg version="1.1" id="layer" xmlns="http://www.w3.org/2000/svg" xmlns:xlink="http://www.w3.org/1999/xlink" x="0px" y="0px"
	 viewBox="0 0 652 652" style="enable-background:new 0 0 652 652;" xml:space="preserve">
<style type="text/css">
	.st0{fill:#002855;}
</style>
<g id="Style-Guide">
	<g id="Elements" transform="translate(-352.000000, -297.000000)">
		<g id="Group-14" transform="translate(352.000000, 297.000000)">
			<g id="Group">
				<path id="Fill-1" class="st0" d="M445,267.5l-56.1,13.1l1.1-116.5l19-4.4l-1,101.7l37.1-8.6L445,267.5z M362.2,184l-46.5,98.8
					l45.6-10.6l-0.1,14.8l-66.5,15.5l0.1-13.1l46.5-98.8l-42.2,9.8l0.1-15.3l63.1-14.7L362.2,184z M265.5,309.3l-19,4.4l1.1-116.5
					l19-4.4L265.5,309.3z M198.3,324.9l-17.5-41.2l-12.4,2.9l-0.4,45.3l-18.5,4.3l1.1-116.5l28-6.5c24.2-5.6,37.9,1.5,37.7,26.3
					c-0.1,13.1-4.7,26.4-18.4,35.7l19.4,45.3L198.3,324.9z M557.9,134.1c-7-2.8-16.3-9.5-19.7-14.2c-3.4-4.7-17.5-19.9-28.2-23.7
					c-10.7-3.8-25.8-4.3-31.6-4.3c-5.8,0-20.9,0-26.8-2.4c-5.8-2.4-14.1-20.7-21.9-18c0,0-13.6,0.9-22.4,19.4
					c-8.8,18.5-6.3,21.3-41.4,28.9c-35,7.6-71.5,4.7-86.6,12.8c-15.1,8-31.1,35.5-71.5,36.9c-40.4,1.4-54-2.4-98.8,25.1
					c-30.3,18.6-42.3,34.8-48.6,46.1l15.4-3.6c29.7-6.9,46.2,2.3,45.7,47.3c-0.4,45-17.7,62.4-46.9,69.2l-25.2,5.9l1-100
					c-7.1,12.7-19.3,37.3-21.3,60.2c-2.4,27.5,7.8,71.5,9.3,86.2c1.5,14.7,6.8,32.7,6.3,43.1c-0.5,10.4-5.4,37.4,0,43.1
					c5.3,5.7,37.5,21.8,59.4,10.4c21.9-11.4,11.2-18.5,7.3-21.8c-3.9-3.3-10.7-12.3-13.6-16.1c-2.9-3.8-1.9-8.1-0.5-10.9
					c1.5-2.8,6.8-22.3,8.3-25.6c1.5-3.3,23.8-35.5,25.8-41.7c1.9-6.2,19.5-4.3,23.4-0.9c3.9,3.3,10.7,24.6,11.2,34.1
					c0.5,9.5,1,35.5,9.2,43.6c8.3,8.1,41.3,9.4,47.2,9.5c9.9,0.1,19.9-6.7,13.6-12.8c-6.3-6.2-21.4-20.8-23.8-24.1
					c-2.4-3.3,2.4-18,6.8-23.7c4.4-5.7,7.4-7.1,10.3-0.9c2.9,6.2,16.5,44.1,19.4,66.8c2.9,22.7,3.4,54.5,5.4,60.2
					c1.9,5.7,30.2,33.2,45.3,33.2c15.1,0,62.8-9,39.9-36c-22.9-27-25.3-18-26.3-41.7c-1-23.7,3.4-70.1,4.9-82.9
					c1.5-12.8,1.9-14.7,4.9-8.1c2.9,6.6,8.8,58.3,13.1,74.4c4.4,16.1,6.7,35.9,24.3,42.6c17.4,6.6,65.3,14.8,76.9,6.2
					c7.1-5.3-4.4-13.7-16.1-22.7c-11.7-9-30.7-19.4-31.1-32.2c-0.5-12.8,9.2-61.6,15.1-75.3c5.8-13.7,9.2-29.4,10.7-50.7
					c1.5-21.3,3.9-55.9,7.3-57.8c2.7-1.5,28.2-13.5,52.7-27.4l0.4-42.8l-27.1-66.6l19.2-4.5l18.1,49.5l19.5-58.3l17.8-4.1
					l-28.7,79.6l-0.4,35.8c27.8-17.7,37-21,42.8-25.3c5.8-4.3,24.8-2.8,40.9-12.3c16.1-9.5,15.5-17.5,15.5-17.5s9.3-7.1,11.7-16.6
					c2.4-9.5,10.2-14.2,10.2-25.6c0-11.4-1.9-13.7-12.2-14.7C593.2,135.5,565,136.9,557.9,134.1z"/>
				<path id="Fill-4" class="st0" d="M178,228.3l-9.2,2.1l-0.4,42.2l9.9-2.3c13.6-3.2,19.2-10,19.4-26.2
					C197.9,228.7,192.6,224.9,178,228.3"/>
				<path id="Fill-5" class="st0" d="M102.5,289c0.3-30.9-5.6-41.6-24.5-37.2l-8.5,2l-0.9,86.8l8.6-2
					C96,334.1,102.2,320.3,102.5,289"/>
			</g>
		</g>
	</g>
</g>
</svg>
