<svg xmlns="http://www.w3.org/2000/svg" version="1.1" width="2049" height="1362" fill="none" viewBox="0 0 2049 1362">
    <g clip-path="url(#clip0)">
        <path fill="#7E9CBF" d="M1042.33 1234.48V858.922c.45-8.378-1.86-16.672-6.57-23.614-1.4-1.843-3.2-3.339-5.26-4.372-2.07-1.033-4.34-1.574-6.65-1.582h-5.55v-13.142h18.69c2.29-.032 4.56.471 6.63 1.469 2.07.998 3.87 2.463 5.28 4.281 4.62 6.973 6.86 15.26 6.36 23.613v375.765c0 14.57-7.18 27.1-16.22 28.95 2.19-4.98 3.31-10.37 3.29-15.81zM743.361 87.688h84.802V74.136h-85.008l.206 13.552zm33.674 1155.822l-2.464-418.674c.324-2.549.067-5.138-.751-7.574-.819-2.436-2.177-4.655-3.974-6.491-1.797-1.837-3.987-3.244-6.404-4.115s-5.001-1.184-7.556-.916c-13.347 0-17.043 7.598-18.069 13.758 1.635-.213 3.292-.213 4.928 0 2.555-.269 5.138.045 7.556.916 2.417.871 4.606 2.277 6.403 4.114 1.797 1.837 3.156 4.056 3.974 6.491.819 2.436 1.076 5.026.752 7.575l2.464 418.676c.215 1.7.215 3.43 0 5.13 4.228-.8 7.974-3.22 10.431-6.76 2.458-3.53 3.431-7.89 2.71-12.13zm233.675-722.157H979.7l-1.232 13.141h19.096l8.216 76.179h87.06l-1.64-13.141h-72.28l-8.21-76.179zM503.531 248.054l-3.08-244.553h-13.142l2.875 244.758 13.347-.205zm-22.176 601.833l6.981 71.456 12.731-174.944h-12.115l-7.597 103.488zm349.067-238.803v-13.142H658.968l-2.464-596.29h-13.141l2.669 610.253 184.39-.821zm-86.24-270.014h43.736v-12.115h-43.531l-.205 12.115zm251.123 28.952l-6.776 64.064h13.351l-6.575-64.064zM1291.6 87.482v-13.14h-38.4v13.14h38.4zM1685.84 92l85.22 1.437V80.09l-85.22-1.437V92zm41.07 240.651h-43.74v13.347h43.74v-13.347zm217.65-201.638l27.31-119.71h-10.06l-20.53 94.865 3.28 24.845zm-181.31 472.268l-171.66-2.669 9.24-596.29h-12.93l-9.24 610.047 184.8 2.875-.21-13.963zm-464.46 252.971l48.87-111.496h-7.19l-41.07 94.454-.61 17.042zm298.96 322.788l-5.54-61.6-7.39 61.6h12.93zm-77.61-579.044l-160.16-1.027 4.52-596.905h-12.94l-4.52 610.252 173.1 1.232v-13.552zM504.557 334.499h-37.576v13.141h24.23l3.08 266.934 86.445-1.026v-12.936h-73.099l-3.08-266.113zM1036.99 1336.53H932.473V743.319h-13.141v606.351h104.518c14.15.01 28.13-3.14 40.92-9.22 12.79-6.07 24.06-14.92 33-25.89-17.06 14.22-38.57 22-60.78 21.97zm173.09 0l3.29-593.006h-13.14l-3.29 606.346h86.04v-13.14l-72.9-.2zm27.72-725.857v-12.731h-73.3l1.85-523.806h-55.85V2.064h-13.35v84.802h55.65l-2.26 524.012 87.26-.205zm239.01 728.317l79.06-591.975h-11.3l-80.9 605.115h89.12l1.64-13.14h-77.62zm-127.92 0l-51.74-181.92v56.87l38.19 137.17h97.12l-3.9-13.14-79.67 1.02zm540.85-732.629l5.34-284.387-66.94-313.545h-16.02l70.64 326.686-5.34 284.387 87.06 1.848v-13.346l-74.74-1.643zm-109.85 501.429c-24.03 0-41.07-27.31-41.07-61.6.13-15.16 4.39-30 12.32-42.92-8.29 6.57-14.93 14.98-19.39 24.57-4.46 9.59-6.61 20.1-6.28 30.67 0 35.11 17.87 61.6 41.07 61.6 4.58-.07 9.1-1.05 13.29-2.89 4.2-1.83 7.98-4.48 11.14-7.79 2.2-2.36 4.19-4.9 5.96-7.6-5 3.56-10.91 5.62-17.04 5.96zM457.125 614.985v-12.936h-73.099l-7.392-597.11h-13.346l6.981 610.251 86.856-.205zM1612.33 1340.84l-6.98-75.56h-30.8l-1.44 13.14h19.1l6.98 75.56 86.65 1.23-1.43-13.34-72.08-1.03zM125.1 175.776L139.679 9.045H127.77l-8.83 101.024 6.16 65.707zm148.457 428.326l-67.555 1.232-23.614-199.379-5.954 71.662 17.042 140.859 79.054-2.054 1.027-12.32zm-187.47 3.491L15.247 11.509H.668l72.277 609.225 79.67-1.437v-12.936l-66.528 1.232zM238.65 171.669l9.445-164.267H235.57l-5.339 95.686 8.419 68.581zm63.859 935.501c-8.944-.14-17.484-3.75-23.819-10.06-12.622-13.91-19.389-32.15-18.891-50.92-.785-15.72 3.148-31.31 11.294-44.77-8.645 6.79-15.422 15.67-19.696 25.8-4.274 10.13-5.905 21.18-4.739 32.11-.498 18.77 6.269 37.01 18.891 50.92 6.398 6.35 15.013 9.95 24.024 10.06 6.016-.31 11.859-2.12 16.99-5.28 5.131-3.16 9.385-7.56 12.372-12.79-4.925 3.11-10.605 4.81-16.426 4.93zm456.457 241.27c-27.252.54-53.661-9.47-73.715-27.93-10.166-9.9-18.169-21.79-23.506-34.94-5.336-13.15-7.89-27.26-7.499-41.44l-2.464-418.472c-.522-23.692 7.168-46.834 21.765-65.502-11.601 9.515-20.898 21.533-27.192 35.153-6.295 13.62-9.424 28.488-9.152 43.49l2.464 418.471c-.391 14.18 2.163 28.29 7.499 41.44 5.337 13.15 13.341 25.05 23.506 34.94 20.055 18.46 46.463 28.47 73.715 27.93 15.325.24 30.508-2.96 44.436-9.35 13.929-6.4 26.248-15.83 36.055-27.61-18.591 15.26-41.861 23.67-65.912 23.82zm201.227-751.114h-76.589L953.623.421h-11.499l-72.688 610.252h89.525l1.232-13.347zM449.528 1340.43l-71.867-592.594h-14.784l73.509 605.734 79.054-1.03 1.232-12.93-67.144.82z"/>
        <path fill="#002855" d="M1762.64 589.934l-157.08-2.464 9.04-582.532 156.87 2.464v58.931l-98.15-1.643-3.08 194.452h56.67v58.93h-56.67l-3.28 211.289 98.14 1.643-2.46 58.93zM514.005 4.117l3.08 257.489H452.2L449.325 4.733l-58.52.821 6.776 578.426v4.106h58.931l-3.285-266.934h65.09l3.08 266.934h58.931l-6.981-584.79-59.342.82zM322.018 6.58H261.65l-17.659 317.035L204.567 8.84l-51.128.82-27.925 317.447L95.74 10.893l-66.528 1.232 68.582 577.604v3.901l54.618-1.026 27.515-321.348 38.398 316.214v3.902l54.208-1.027L322.018 6.581zM490.187 1083.35l-32.443-335.719h-66.118l70.019 578.019h54.414l59.547-579.251h-59.958l-25.461 336.951zm339.827-499.165V525.46h-98.149V313.966h56.672V255.24h-58.315V60.79h98.15V1.652H671.291l2.67 582.737 156.053-.205zM300.048 996.906c-16.017 0-28.131 21.974-27.515 48.874-.25 15.03 5.009 29.64 14.784 41.06 1.86 1.96 4.087 3.52 6.553 4.61 2.466 1.1 5.124 1.69 7.82 1.76 16.016 0 28.131-21.77 27.515-48.87.033-11.49-2.865-22.8-8.419-32.86-1.83-4.06-4.721-7.56-8.37-10.13-3.649-2.564-7.921-4.099-12.368-4.444zM1520.14 527.308h-86.65l4.52-524.218h-58.93l-4.11 578.426v4.312h145.38l-.21-58.52zm103.7 224.635l60.57 576.167h-58.93l-6.98-75.56h-55.44l-8.63 75.35h-61.6l77.21-577.805h53.8v1.848zm-29.78 231.411l-24.84 209.026h43.53l-18.69-209.026zM847.057 824.426l2.464 418.674c.543 12.12-1.423 24.22-5.775 35.55-4.353 11.32-10.998 21.63-19.519 30.26-8.52 8.64-18.733 15.42-29.998 19.93-11.265 4.5-23.339 6.63-35.466 6.25-23.723.6-46.757-8.01-64.269-24.02-8.733-8.7-15.604-19.08-20.193-30.52-4.59-11.44-6.801-23.69-6.5-36.01l-2.464-418.677c-.443-11.954 1.606-23.869 6.017-34.988 4.41-11.12 11.086-21.2 19.602-29.6 8.516-8.4 18.687-14.937 29.865-19.195 11.179-4.258 23.121-6.144 35.068-5.537 23.428-.39 46.147 8.038 63.653 23.613 8.819 8.198 15.823 18.153 20.562 29.222 4.739 11.069 7.108 23.008 6.953 35.048zm-88.499 451.734c4.308.18 8.605-.55 12.614-2.13 4.009-1.59 7.641-3.99 10.661-7.07 3.019-3.08 5.359-6.76 6.867-10.8 1.509-4.03 2.153-8.34 1.89-12.65l-2.258-418.468c.366-4.372-.218-8.771-1.713-12.896-1.494-4.125-3.865-7.877-6.947-10.998-3.083-3.122-6.805-5.539-10.91-7.086-4.106-1.546-8.497-2.185-12.873-1.874-4.389-.253-8.78.442-12.876 2.039-4.096 1.596-7.799 4.056-10.858 7.213s-5.402 6.935-6.87 11.079c-1.467 4.144-2.024 8.555-1.634 12.933l2.464 418.468c-.273 4.33.38 8.66 1.916 12.71 1.536 4.04 3.921 7.72 6.993 10.77 3.072 3.05 6.761 5.41 10.82 6.93 4.059 1.51 8.394 2.13 12.714 1.83zM1985.43 11.92l-41.07 188.085-35.73-189.728-66.11-1.232 67.76 311.697-5.14 272.067 59.55 1.437 5.13-275.147 78.85-305.947-63.24-1.232zm-622.98 733.452l-77.62 177.203V744.961h-58.52l-3.29 574.939v4.31h58.73l1.44-264.47 75.35 264.88h68.17l-103.28-345.373 108.21-233.464-69.19-.411zm418.47 252.15c-15.61 0-28.34 20.538-29.37 47.838 0 27.11 12.32 48.46 28.13 48.67 2.75-.07 5.45-.68 7.96-1.81 2.5-1.13 4.76-2.75 6.62-4.76 9.56-11.52 14.59-26.11 14.17-41.07 1.04-14.8-3.5-29.45-12.73-41.07-1.78-2.26-4.02-4.12-6.56-5.469-2.55-1.344-5.35-2.138-8.22-2.329zM959.58 583.569h-61.6v-4.723L967.383.421h54.007l68.99 583.148h-59.14l-8.21-76.179h-55.647l-7.803 76.179zm57.49-134.904l-21.762-211.083-21.971 211.083h43.733zm220.12 135.52l1.85-523.807h52.15V1.653L1124.46.42v59.752h55.65l-1.85 523.807 58.93.205zm-109.03 275.558v347.427c.95 29.27-7.54 58.07-24.23 82.13-7.54 10.66-17.55 19.32-29.17 25.26-11.62 5.94-24.51 8.97-37.56 8.83h-90.967V743.935h90.757c53.8.205 91.17 47.637 91.17 115.808zm-68.38-46.2c-2.63-3.421-6.02-6.184-9.91-8.072-3.88-1.889-8.15-2.851-12.47-2.811h-32.44v462h32.24c18.07 0 32.23-18.89 32.23-43.12V845.78c.58-11.535-2.82-22.918-9.65-32.237z"/>
    </g>
    <defs>
        <clipPath id="clip0">
            <path fill="#fff" d="M0 0H2048V1361.16H0z" transform="translate(.668 .42)"/>
        </clipPath>
    </defs>
</svg>
