<svg xmlns="http://www.w3.org/2000/svg" width="495" height="70" fill="none" viewBox="0 0 495 70">
    <g fill="#fff" clip-path="url(#clip0)">
        <path d="M26.529 66.45h7.76l-.2 1.52h-9.09l-8.44-65.93h1.72l8.25 64.41zM34.218 2.04h1.32l-3.65 26.92-.55-5.71 2.88-21.21zM48.238 28.97l-.81-5.97 2-20.96h1.38l-2.57 26.93zM51.128 66.45l-.2 1.52h-9.08l-3.19-24.62.86-6.6 3.85 29.7h7.76zM68.228 66.45h8.43v1.52h-9.96V2.04h1.53v64.41zM85.678 2.04h-1.52v26.02h1.52V2.04zM94.118 66.45v1.52h-9.96V39.55h-5.97v-1.53h7.49v28.43h8.44zM120.408 37.59h-6.46v1.53h6.46v-1.53zM126.198 10.48h-12.25v1.53h12.25v-1.53z"/>
        <path d="M103.998 66.45h22.21v1.52h-23.74V2.04h1.53v64.41zM144.669 2.04h-1.29l-10.15 65.93h10.44l.19-1.52h-9.13l9.94-64.41zm4.81 31.85l-.88 6.54 1.14 8.73h1.72l-1.98-15.27zm12.55 32.6h-8.36l-1-7.81h-6.52l-.18 1.53h5.17l1 7.8h10.13l-.24-1.52zM172.338 66.45h8.44v1.52h-9.97V12.01h-7.19V2.04h1.53v8.44h7.19v55.97zM188.058 10.48h-5.76v1.53h5.76v-1.53zM217.118 66.45v1.52h-22.07V2.04h1.53v64.41h20.54zM243.398 37.59h-6.45v1.53h6.45v-1.53zM249.188 10.48h-12.24v1.53h12.24v-1.53z"/>
        <path d="M226.978 66.45h22.22v1.52h-23.74V2.04h1.52v64.41zM269.118 66.45h8.43v1.52h-9.96V37.28l-10.76-35.24h1.99l10.3 33.72v30.69zM274.238 18.55l-.56-2.25 3.62-14.26h1.14l-4.2 16.51zM317.578 66.45h7.75l-.22 1.52h-9.05l-9.27-65.93h1.74l9.05 64.41zM322.678 30.85l-.68-6.29 2.43-22.52h1.36l-3.11 28.81zM361.609 66.51c-3.355 1.415-7.133 1.443-10.507.076-3.375-1.367-6.069-4.015-7.493-7.366-.716-1.685-1.08-3.499-1.07-5.33V13.17c.007-1.838.392-3.656 1.13-5.34.552-1.291 1.298-2.492 2.21-3.56-.28.23-.54.48-.8.73-1.242 1.253-2.236 2.728-2.93 4.35-.725 1.69-1.092 3.511-1.08 5.35v40.7c-.012 1.839.355 3.66 1.08 5.35 1.388 3.28 3.999 5.892 7.28 7.28 1.693.713 3.512 1.08 5.35 1.08 1.837 0 3.656-.367 5.35-1.08 1.619-.692 3.092-1.686 4.34-2.93.26-.25.5-.52.73-.79-1.064.905-2.258 1.647-3.54 2.2h-.05zm-2.66-56c-.345-.35-.756-.626-1.21-.813-.453-.187-.94-.282-1.43-.277-.497-.014-.992.075-1.453.261-.461.186-.879.465-1.227.819-.261.257-.483.55-.66.87.559-.287 1.181-.431 1.81-.42.49-.006.977.088 1.431.275.454.188.865.465 1.209.815.361.34.646.754.838 1.212.191.458.284.952.272 1.448v40.7c.011.616-.133 1.225-.42 1.77.306-.172.589-.384.84-.63.36-.341.644-.754.833-1.213.19-.458.28-.951.267-1.447V13.17c.013-.496-.077-.989-.267-1.447-.189-.459-.473-.872-.833-1.213M394.668 11.57c-.342-.353-.753-.631-1.207-.819-.454-.187-.941-.28-1.433-.271h-3.76V12h2.23c.491-.005.978.09 1.431.277.454.187.865.464 1.209.813.36.341.644.755.834 1.213.189.458.28.951.266 1.447v38.51c.011.616-.133 1.225-.42 1.77.31-.167.593-.38.84-.63.364-.34.65-.752.842-1.21.191-.459.283-.953.268-1.45V14.22c.015-.494-.076-.986-.266-1.443-.189-.457-.473-.868-.834-1.207zm2.71 53.8c-1.692.718-3.512 1.085-5.35 1.08h-13.72V2.04h-1.53v65.93h13.72c1.839.01 3.66-.358 5.35-1.08 1.618-.69 3.089-1.684 4.33-2.93.26-.26.51-.52.74-.79-1.067.905-2.264 1.647-3.55 2.2M413.988 66.45h8.44v1.52h-9.97V2.04h1.53v64.41zM432.678 2.04l-8.72 15.78v-1.24l8.04-14.54h.68zM443.368 67.97h-10.98l-8.43-21.83v-5.48l9.96 25.79h8.84l.61 1.52zM478.488 66.45h-8.37l-1-7.81h-6.45l-.18 1.53h5.18l1 7.8h10.12l-.3-1.52zm-12.55-32.56l-.88 6.55 1.14 8.72h1.72l-1.98-15.27zm-4.78-31.85h-1.29l-10.2 65.93h10.47l.19-1.52h-9.13l9.96-64.41zM9.668 38.97l-.16.23c-.424.621-.998 1.124-1.67 1.462-.672.338-1.419.499-2.17.468-.722-.005-1.432-.182-2.072-.516-.64-.334-1.19-.815-1.608-1.404-.864-1.115-1.329-2.489-1.32-3.9-.011-1.447.464-2.856 1.35-4 .366-.474.809-.883 1.31-1.21-.748 1.084-1.143 2.373-1.13 3.69-.005 1.412.472 2.784 1.35 3.89.671.945 1.674 1.603 2.808 1.842 1.134.239 2.317.042 3.312-.552M492.889 38.98l-.16.23c-.414.609-.975 1.104-1.63 1.44-.655.335-1.384.5-2.12.48-.721-.005-1.429-.182-2.068-.516-.638-.334-1.187-.815-1.602-1.404-.887-1.106-1.367-2.483-1.36-3.9-.016-1.45.464-2.86 1.36-4 .359-.476.799-.886 1.3-1.21-.75 1.08-1.145 2.366-1.13 3.68-.004 1.415.472 2.79 1.35 3.9.672.926 1.663 1.57 2.782 1.808s2.287.054 3.278-.518M59.538 1.94l-8.34 63.08h-6.57l-5.09-39.3-5.18 39.3h-6.58l-8.07-63.08h8.16l3.77 39.48 5.35-39.48h6.14l5.35 39.48 3.78-39.48h7.28zM94.218 65.02h-7.11V36.59h-10.35v28.43h-7.1V1.94h7.1v27.55h10.35V1.94h7.11v63.08zM126.308 65.02h-20.89V1.94h20.89v7.11h-13.78v20h7.98v7.11h-7.98v21.75h13.78v7.11zM162.129 65.02h-7.2l-1-7.81h-9l-1 7.81h-7.54l9.74-63.08h6.4l9.6 63.08zm-9-14.48l-3.63-27.65-3.69 27.63 7.32.02zM188.158 9.05h-7.28v55.97h-7.11V9.05h-7.19V1.94h21.58v7.11zM217.219 65.02h-19.21V1.94h7.1v55.97h12.11v7.11z"/>
        <path d="M249.288 65.02h-20.88V1.94h20.88v7.11h-13.77v20h7.98v7.11h-7.98v21.75h13.77v7.11zM287.728 1.94l-10.08 33.25v29.83h-7.1V35.54l-10.27-33.6h8.33l5.62 22.46 5.7-22.46h7.8zM334.518 1.94l-9.12 63.08h-6.58l-8.86-63.08h8.16l4.56 42.2 4.56-42.2h7.28zM368.538 53.89c-.002 1.645-.342 3.272-1 4.78-1.247 2.941-3.589 5.283-6.53 6.53-1.514.64-3.141.97-4.785.97-1.643 0-3.27-.33-4.785-.97-2.941-1.25-5.284-3.59-6.54-6.53-.657-1.508-.997-3.135-1-4.78V13.17c.003-1.645.343-3.272 1-4.78.627-1.455 1.522-2.778 2.64-3.9 1.136-1.104 2.469-1.986 3.93-2.6 1.516-.633 3.143-.96 4.785-.96 1.643 0 3.27.327 4.785.96 1.455.626 2.779 1.522 3.9 2.64 1.119 1.12 2.011 2.444 2.63 3.9.658 1.508.998 3.135 1 4.78v40.68h-.03zm-7.08 0V13.17c.016-.687-.113-1.37-.378-2.004-.265-.634-.661-1.205-1.162-1.676-.721-.729-1.644-1.226-2.65-1.427-1.005-.201-2.048-.097-2.995.298-.946.395-1.753 1.064-2.317 1.921-.564.857-.859 1.863-.848 2.888v40.72c.003 1.02.307 2.015.873 2.863.567.847 1.37 1.509 2.311 1.902.94.393 1.976.5 2.977.306 1.001-.193 1.922-.676 2.649-1.39.495-.474.886-1.047 1.146-1.68.26-.634.384-1.316.364-2M404.308 52.74c-.002 1.645-.342 3.272-1 4.78-1.255 2.936-3.594 5.275-6.53 6.53-1.51.662-3.141 1.003-4.79 1h-12.25V1.94h12.28c1.649.003 3.279.343 4.79 1 2.936 1.256 5.275 3.595 6.53 6.53.658 1.508.998 3.135 1 4.78v38.49h-.03zm-7.08 0V14.22c.007-.688-.128-1.37-.396-2.003s-.665-1.204-1.164-1.677c-.477-.478-1.045-.856-1.67-1.111-.625-.256-1.294-.385-1.97-.379h-5.18v48.84h5.18c.675.013 1.345-.11 1.971-.363.625-.252 1.193-.629 1.669-1.107.499-.472.893-1.044 1.158-1.678.265-.633.396-1.315.382-2.002M442.788 65.02h-7.89L422.528 33v32.02h-7.11V1.94h7.11v21.41l11.84-21.41h8.42l-15 25.53 15 37.55zM478.589 65.02h-7.2l-1-7.81h-9l-1 7.81h-7.54l9.82-63.08h6.4l9.52 63.08zm-9-14.48l-3.64-27.65-3.68 27.65h7.32zM10.728 33.79c.031 1.104-.287 2.188-.91 3.1-.285.42-.673.76-1.126.99-.453.228-.956.339-1.464.32-.507-.006-1.006-.136-1.452-.378-.446-.242-.826-.59-1.108-1.012-.662-.858-1.015-1.916-1-3-.026-1.123.326-2.222 1-3.12.286-.414.667-.753 1.11-.99.444-.236.938-.363 1.44-.37.509-.017 1.013.095 1.466.326.453.23.84.573 1.124.994.626.933.944 2.038.91 3.16M494.019 33.79c.022 1.096-.304 2.17-.93 3.07-.286.42-.673.76-1.126.99-.453.228-.957.339-1.464.32-.501-.005-.992-.131-1.433-.368-.441-.237-.817-.577-1.097-.992-.687-.849-1.062-1.908-1.06-3-.015-1.13.359-2.232 1.06-3.12.281-.413.658-.753 1.098-.99.441-.236.932-.363 1.432-.37.508-.017 1.012.095 1.465.326.453.23.84.573 1.125.994.636.929.962 2.035.93 3.16"/>
    </g>
    <defs>
        <clipPath id="clip0">
            <path fill="#fff" d="M0 0H493.35V68.22H0z" transform="translate(.668 .89)"/>
        </clipPath>
    </defs>
</svg>
