<svg xmlns="http://www.w3.org/2000/svg" width="100" height="68" fill="none" viewBox="0 0 100 68">
    <g fill="#fff" clip-path="url(#clip0)">
        <path d="M50.748 60.955v-18.29c.021-.408-.091-.812-.32-1.15-.068-.09-.156-.163-.256-.213-.101-.05-.212-.077-.324-.077h-.27v-.64h.91c.111-.002.222.023.323.072.1.048.188.12.257.208.225.34.334.743.31 1.15v18.3c0 .71-.35 1.32-.79 1.41.106-.243.16-.505.16-.77zm-14.56-55.85h4.13v-.66h-4.14l.01.66zm1.64 56.29l-.12-20.39c.015-.124.003-.25-.037-.369s-.106-.227-.194-.316c-.087-.09-.194-.158-.311-.2-.118-.043-.244-.058-.368-.045-.65 0-.83.37-.88.67.08-.01.16-.01.24 0 .124-.013.25.002.368.045.117.042.224.11.311.2.088.09.154.197.194.316.04.119.052.245.037.369l.12 20.39c.01.083.01.167 0 .25.206-.039.388-.157.508-.33.12-.171.167-.383.132-.59zm11.38-35.17h-1.51l-.06.64h.93l.4 3.71h4.24l-.08-.64h-3.52l-.4-3.71zm-24.7-13.31l-.15-11.91h-.64l.14 11.92.65-.01zm-1.08 29.31l.34 3.48.62-8.52h-.59l-.37 5.04zm17-11.63v-.64h-8.35l-.12-29.04h-.64l.13 29.72 8.98-.04zm-4.2-13.15h2.13v-.59h-2.12l-.01.59zm12.23 1.41l-.33 3.12h.65l-.32-3.12zm14.43-13.76v-.64h-1.87v.64h1.87zm19.2.22l4.15.07v-.65l-4.15-.07v.65zm2 11.72h-2.13v.65h2.13v-.65zm10.6-9.82l1.33-5.83h-.49l-1 4.62.16 1.21zm-8.83 23l-8.36-.13.45-29.04h-.63l-.45 29.71 9 .14-.01-.68zm-22.62 12.32l2.38-5.43h-.35l-2 4.6-.03.83zm14.56 15.72l-.27-3-.36 3h.63zm-3.78-28.2l-7.8-.05.22-29.07h-.63l-.22 29.72 8.43.06v-.66zm-49.46-12.93h-1.83v.64h1.18l.15 13 4.21-.05v-.63h-3.56l-.15-12.96zm25.93 48.8h-5.09v-28.89h-.64v29.53h5.09c.689 0 1.37-.153 1.992-.449.623-.296 1.172-.727 1.608-1.261-.831.693-1.879 1.072-2.96 1.07zm8.43 0l.16-28.88h-.64l-.16 29.53h4.19v-.64l-3.55-.01zm1.35-35.35v-.62h-3.57l.09-25.51h-2.72V.935h-.65v4.13h2.71l-.11 25.52 4.25-.01zm11.64 35.47l3.85-28.83h-.55l-3.94 29.47h4.34l.08-.64h-3.78zm-6.23 0l-2.52-8.86v2.77l1.86 6.68h4.73l-.19-.64-3.88.05zm26.34-35.68l.26-13.85-3.26-15.27h-.78l3.44 15.91-.26 13.85 4.24.09v-.65l-3.64-.08zm-5.35 24.42c-1.17 0-2-1.33-2-3 .006-.738.213-1.46.6-2.09-.404.32-.728.73-.945 1.197-.217.467-.322.978-.305 1.493 0 1.71.87 3 2 3 .222-.003.442-.051.647-.14.204-.09.389-.219.543-.38.106-.115.204-.239.29-.37-.244.173-.532.274-.83.29zm-64.42-24v-.63h-3.56l-.36-29.08h-.65l.34 29.72 4.23-.01zm56.26 35.35l-.34-3.68h-1.5l-.07.64h.93l.34 3.68 4.22.06-.07-.65-3.51-.05zM6.078 9.395l.71-8.12h-.58l-.43 4.92.3 3.2zm7.23 20.86l-3.29.06-1.15-9.71-.29 3.49.83 6.86 3.85-.1.05-.6zm-9.13.17L.728 1.395h-.71l3.52 29.67 3.88-.07v-.63l-3.24.06zm7.43-21.23l.46-8h-.61l-.26 4.66.41 3.34zm3.11 45.56c-.436-.007-.852-.183-1.16-.49-.615-.677-.945-1.566-.92-2.48-.039-.765.153-1.524.55-2.18-.421.33-.752.763-.96 1.256-.208.494-.287 1.032-.23 1.564-.025.914.305 1.803.92 2.48.311.309.73.485 1.17.49.293-.015.577-.104.827-.257.25-.154.457-.368.603-.623-.24.151-.517.234-.8.24zm22.23 11.75c-1.328.026-2.614-.46-3.59-1.36-.495-.482-.885-1.061-1.145-1.702-.26-.64-.384-1.327-.365-2.018l-.12-20.38c-.026-1.154.349-2.28 1.06-3.19-.565.463-1.018 1.049-1.325 1.712-.306.663-.459 1.387-.445 2.118l.12 20.38c-.02.69.105 1.378.365 2.018.26.64.65 1.22 1.145 1.702.976.9 2.262 1.386 3.59 1.36.746.012 1.485-.144 2.164-.456.678-.311 1.278-.77 1.756-1.344-.906.743-2.04 1.153-3.21 1.16zm9.8-36.58h-3.73l3.41-29.07h-.56l-3.54 29.72h4.36l.06-.65zm-24.87 36.19l-3.5-28.86h-.72l3.58 29.5 3.85-.05.06-.63-3.27.04z"/>
        <path d="M85.827 29.565l-7.65-.12.44-28.37 7.64.12v2.87l-4.78-.08-.15 9.47h2.76v2.87h-2.76l-.16 10.29 4.78.08-.12 2.87zm-60.81-28.53l.15 12.54h-3.16l-.14-12.51-2.85.04.33 28.17v.2h2.87l-.16-13h3.17l.15 13h2.87l-.34-28.48-2.89.04zm-9.35.12h-2.94l-.86 15.44-1.92-15.33-2.49.04-1.36 15.46-1.45-15.4-3.24.06 3.34 28.13v.19l2.66-.05 1.34-15.65 1.87 15.4v.19l2.64-.05 2.41-28.43zm8.19 52.44l-1.58-16.35h-3.22l3.41 28.15h2.65l2.9-28.21h-2.92l-1.24 16.41zm16.55-24.31v-2.86h-4.78v-10.3h2.76v-2.86h-2.84v-9.47h4.78V.915h-7.65l.13 28.38 7.6-.01zm-25.81 20.1c-.78 0-1.37 1.07-1.34 2.38-.012.732.244 1.444.72 2 .09.095.2.171.32.225.12.053.249.082.38.085.78 0 1.37-1.06 1.34-2.38.002-.56-.14-1.11-.41-1.6-.089-.198-.23-.369-.407-.493-.178-.125-.386-.2-.603-.217zm59.42-22.87h-4.22l.22-25.53h-2.87l-.2 28.17v.21h7.08l-.01-2.85zm5.05 10.94l2.95 28.06h-2.87l-.34-3.68h-2.7l-.42 3.67h-3l3.76-28.14h2.62v.09zm-1.45 11.27l-1.21 10.18h2.12l-.91-10.18zm-36.38-7.74l.12 20.39c.027.59-.07 1.18-.281 1.731-.212.552-.536 1.053-.95 1.474-.416.42-.913.751-1.462.97-.548.22-1.136.324-1.727.305-1.155.03-2.277-.39-3.13-1.17-.425-.424-.76-.93-.983-1.486-.224-.557-.331-1.154-.317-1.754l-.12-20.39c-.021-.582.078-1.163.293-1.704.215-.541.54-1.032.955-1.441.415-.41.91-.728 1.454-.935.545-.208 1.126-.3 1.708-.27 1.141-.019 2.248.392 3.1 1.15.43.4.77.884 1.002 1.423.23.54.346 1.12.338 1.707zm-4.31 22c.21.009.42-.027.614-.104.196-.077.373-.194.52-.344.147-.15.26-.33.334-.526.074-.197.105-.406.092-.616l-.11-20.38c.018-.213-.01-.427-.083-.628-.073-.2-.188-.384-.338-.536-.15-.152-.332-.27-.532-.345-.2-.075-.414-.106-.627-.091-.213-.012-.427.022-.627.1-.2.077-.38.197-.529.35-.149.154-.263.338-.334.54-.072.202-.099.417-.08.63l.12 20.38c-.013.21.019.421.093.619.075.197.192.376.341.524.15.15.33.264.527.338.198.073.409.104.62.089zm59.75-61.57l-2 9.16-1.74-9.24-3.22-.06 3.3 15.18-.25 13.25 2.9.07.25-13.4 3.84-14.9-3.08-.06zm-30.34 35.72l-3.78 8.63v-8.65h-2.85l-.16 28v.21h2.86l.07-12.88 3.67 12.9h3.32l-5.03-16.82 5.27-11.37-3.37-.02zm20.38 12.28c-.76 0-1.38 1-1.43 2.33 0 1.32.6 2.36 1.37 2.37.134-.003.266-.033.388-.088.122-.055.231-.134.322-.232.465-.56.71-1.272.69-2 .05-.72-.17-1.434-.62-2-.086-.11-.195-.201-.32-.267-.123-.065-.26-.104-.4-.113zm-40-20.16h-3v-.23l3.38-28.17h2.63l3.36 28.4h-2.88l-.4-3.71h-2.71l-.38 3.71zm2.8-6.57l-1.06-10.28-1.07 10.28h2.13zm10.72 6.6l.09-25.51h2.54V.915l-8.12-.06v2.91h2.71l-.09 25.51 2.87.01zm-5.31 13.42v16.92c.047 1.425-.367 2.828-1.18 4-.367.519-.854.941-1.42 1.23-.566.29-1.194.437-1.83.43h-4.43v-28.22h4.42c2.62.01 4.44 2.32 4.44 5.64zm-3.33-2.25c-.128-.167-.293-.301-.483-.393-.189-.092-.396-.139-.607-.137h-1.58v22.5h1.57c.88 0 1.57-.92 1.57-2.1v-18.3c.028-.562-.138-1.116-.47-1.57z"/>
    </g>
    <defs>
        <clipPath id="clip0">
            <path fill="#fff" d="M0 0H99.74V66.29H0z" transform="translate(.018 .855)"/>
        </clipPath>
    </defs>
</svg>
